<svg xmlns="http://www.w3.org/2000/svg" viewBox="0 0 288 165" width="100%" height="100%" role="img" aria-label="Rhine logo">
  <path
    d="M 156 94
       C 174 112 190 127 213 128
       C 246 129 267 111 267 84
       C 267 50 246 30 214 31
       C 203 31 194 34 185 39"
    fill="none"
    stroke="#dedcca"
    stroke-width="25"
    stroke-linecap="round"
    stroke-linejoin="round"
  />

  <path
    d="M 132 70
       C 113 52 96 36 76 35
       C 43 33 21 52 21 84
       C 21 115 43 133 74 131
       C 96 130 113 113 132 96
       L 156 72"
    fill="none"
    stroke="#dedcca"
    stroke-width="25"
    stroke-linecap="round"
    stroke-linejoin="round"
  />

  <path
    d="M 132 70 L 156 94"
    fill="none"
    stroke="#dedcca"
    stroke-width="25"
    stroke-linecap="round"
    stroke-linejoin="round"
  />

  <g fill="#cada42">
    <rect x="51" y="78" width="42" height="12" rx="5"/>
    <rect x="66" y="62" width="12" height="44" rx="5"/>
    <rect x="200" y="78" width="40" height="11" rx="5"/>
  </g>
</svg>
